<svg width="421" height="84" viewBox="0 0 421 84" fill="none" xmlns="http://www.w3.org/2000/svg">
<path d="M0.647461 61.8507L25.7023 61.5594C33.9976 61.4629 41.7754 57.5105 46.7436 50.8669L54.8618 40.0112C65.7779 25.4141 87.796 25.8303 98.1526 40.8296L106.737 53.2624C112.284 61.2952 121.777 65.6546 131.484 64.6267L145.484 63.1444C150.715 62.5905 155.992 63.5962 160.652 66.0347L185.621 79.0997C189.621 81.1929 194.088 82.2359 198.602 82.131L220.498 81.6218C226.603 81.4798 232.475 79.2459 237.131 75.2936L258.343 57.2879C264.539 52.0289 272.795 49.8827 280.767 51.4586L288.179 52.9237C299.111 55.0847 310.233 50.2187 316.066 40.7235L331.909 14.9322C339.095 3.23398 353.99 -1.09459 366.327 4.93021L377.255 10.2673C380.899 12.0468 384.9 12.9717 388.955 12.9717H421.007" stroke="#FC831A" stroke-width="3.55484"/>
</svg>
