<svg width="523" height="104" viewBox="0 0 523 104" fill="none" xmlns="http://www.w3.org/2000/svg">
<path d="M0.493652 76.4354L31.5962 76.0737C41.8939 75.954 51.549 71.0476 57.7165 62.8003L67.7942 49.3243C81.3453 31.2037 108.678 31.7204 121.535 50.3402L132.191 65.774C139.076 75.7458 150.861 81.1574 162.911 79.8815L180.291 78.0413C186.784 77.3538 193.335 78.6022 199.12 81.6293L230.116 97.8479C235.082 100.446 240.627 101.741 246.23 101.611L273.411 100.979C280.99 100.803 288.28 98.0294 294.06 93.1232L320.392 70.7712C328.083 64.2428 338.332 61.5786 348.228 63.5349L357.429 65.3536C371 68.0362 384.807 61.9957 392.048 50.2086L411.715 18.1917C420.636 3.6698 439.126 -1.70358 454.44 5.77548L468.007 12.4009C472.53 14.6098 477.497 15.758 482.531 15.758H522.319" stroke="#FC831A" stroke-width="4.4129"/>
</svg>
