<svg width="24" height="24" viewBox="0 0 24 24" fill="none" xmlns="http://www.w3.org/2000/svg">
<rect width="24" height="24" fill="white"/>
<path d="M22.2661 10.715C22.7771 11.4961 22.7771 12.504 22.2661 13.2852C21.2909 14.7762 19.9991 16.0421 18.4759 16.9889C16.532 18.1972 14.2888 18.8376 12 18.8376C9.71116 18.8376 7.46797 18.1972 5.52406 16.9889C4.00089 16.0421 2.70908 14.7762 1.73387 13.2852C1.22294 12.504 1.22294 11.4961 1.73387 10.715C2.70908 9.22396 4.00089 7.95806 5.52406 7.01127C7.46797 5.80296 9.71116 5.1626 12 5.1626C14.2888 5.1626 16.532 5.80296 18.4759 7.01127C19.9991 7.95806 21.2909 9.22396 22.2661 10.715Z" stroke="#8AA5B7" stroke-width="1.5" stroke-linecap="round" stroke-linejoin="round"/>
<path d="M12 15.3C13.8225 15.3 15.2999 13.8225 15.2999 12C15.2999 10.1774 13.8225 8.69995 12 8.69995C10.1774 8.69995 8.69995 10.1774 8.69995 12C8.69995 13.8225 10.1774 15.3 12 15.3Z" stroke="#8AA5B7" stroke-width="1.5" stroke-linecap="round" stroke-linejoin="round"/>
</svg>
