<svg width="24" height="21" viewBox="0 0 24 21" fill="none" xmlns="http://www.w3.org/2000/svg">
<path d="M15.8304 16.1538L18.6016 21H16.7552L13.984 16.1538H10.0256L7.2544 21H5.408L8.1792 16.1538H3.2C2.98783 16.1538 2.78434 16.0688 2.63431 15.9173C2.48429 15.7658 2.4 15.5604 2.4 15.3462V1.61538H0.8C0.587827 1.61538 0.384344 1.53029 0.234315 1.37882C0.0842854 1.22735 0 1.02191 0 0.807692C0 0.593479 0.0842854 0.388039 0.234315 0.236568C0.384344 0.0850961 0.587827 0 0.8 0H23.2C23.4122 0 23.6157 0.0850961 23.7657 0.236568C23.9157 0.388039 24 0.593479 24 0.807692C24 1.02191 23.9157 1.22735 23.7657 1.37882C23.6157 1.53029 23.4122 1.61538 23.2 1.61538H21.6V15.3462C21.6 15.5604 21.5157 15.7658 21.3657 15.9173C21.2157 16.0688 21.0122 16.1538 20.8 16.1538H15.8304ZM20 1.61538H4V14.5385H20V1.61538ZM8 8.07692C8.21217 8.07692 8.41566 8.16202 8.56569 8.31349C8.71571 8.46496 8.8 8.6704 8.8 8.88461V10.5C8.8 10.7142 8.71571 10.9197 8.56569 11.0711C8.41566 11.2226 8.21217 11.3077 8 11.3077C7.78783 11.3077 7.58434 11.2226 7.43431 11.0711C7.28429 10.9197 7.2 10.7142 7.2 10.5V8.88461C7.2 8.6704 7.28429 8.46496 7.43431 8.31349C7.58434 8.16202 7.78783 8.07692 8 8.07692ZM12 6.46154C12.2122 6.46154 12.4157 6.54663 12.5657 6.69811C12.7157 6.84958 12.8 7.05502 12.8 7.26923V10.5C12.8 10.7142 12.7157 10.9197 12.5657 11.0711C12.4157 11.2226 12.2122 11.3077 12 11.3077C11.7878 11.3077 11.5843 11.2226 11.4343 11.0711C11.2843 10.9197 11.2 10.7142 11.2 10.5V7.26923C11.2 7.05502 11.2843 6.84958 11.4343 6.69811C11.5843 6.54663 11.7878 6.46154 12 6.46154ZM16 4.84615C16.2122 4.84615 16.4157 4.93125 16.5657 5.08272C16.7157 5.23419 16.8 5.43963 16.8 5.65385V10.5C16.8 10.7142 16.7157 10.9197 16.5657 11.0711C16.4157 11.2226 16.2122 11.3077 16 11.3077C15.7878 11.3077 15.5843 11.2226 15.4343 11.0711C15.2843 10.9197 15.2 10.7142 15.2 10.5V5.65385C15.2 5.43963 15.2843 5.23419 15.4343 5.08272C15.5843 4.93125 15.7878 4.84615 16 4.84615Z" fill="white"/>
</svg>
