<svg width="26" height="15" viewBox="0 0 26 15" fill="none" xmlns="http://www.w3.org/2000/svg">
<path d="M8.66667 0H17.3333V2.14286H8.66667V0ZM4.33333 4.28571V2.14286H8.66667V4.28571H4.33333ZM2.16667 6.42857V4.28571H4.33333V6.42857H2.16667ZM2.16667 8.57143V6.42857H0V8.57143H2.16667ZM4.33333 10.7143H2.16667V8.57143H4.33333V10.7143ZM8.66667 12.8571H4.33333V10.7143H8.66667V12.8571ZM17.3333 12.8571V15H8.66667V12.8571H17.3333ZM21.6667 10.7143V12.8571H17.3333V10.7143H21.6667ZM23.8333 8.57143V10.7143H21.6667V8.57143H23.8333ZM23.8333 6.42857H26V8.57143H23.8333V6.42857ZM21.6667 4.28571H23.8333V6.42857H21.6667V4.28571ZM21.6667 4.28571V2.14286H17.3333V4.28571H21.6667ZM10.8333 5.35714H15.1667V9.64286H10.8333V5.35714Z" fill="#4788EC"/>
</svg>
